<svg version="1.1" id="Layer_1" xmlns="http://www.w3.org/2000/svg" xmlns:xlink="http://www.w3.org/1999/xlink" x="0px" y="0px"
	 width="100%" viewBox="0 0 1024 1024" enable-background="new 0 0 1024 1024" xml:space="preserve">
<path fill="#000000" opacity="1.000000" stroke="none" 
	d="
M405.634033,776.614624 
	C405.007019,767.308594 402.718475,764.592224 394.542633,763.034424 
	C393.584961,762.851990 392.596344,762.519836 391.768982,762.015930 
	C385.943817,758.467712 385.622772,758.347351 381.449005,763.789856 
	C375.230133,771.899231 367.252472,778.473511 361.962067,787.459656 
	C358.388885,793.528809 354.774475,799.644409 352.887543,806.267456 
	C351.389648,811.524902 348.057251,813.807373 343.855469,815.140991 
	C336.546356,817.461060 330.413727,822.109558 323.263641,824.765076 
	C320.064209,825.953308 318.107788,826.196899 315.887299,823.606018 
	C314.491455,821.977356 312.987244,820.263184 311.169220,819.217468 
	C308.600159,817.739807 307.904785,815.762085 307.965302,813.027222 
	C308.350128,795.638611 315.250244,781.112976 326.163361,767.766846 
	C333.159027,759.211609 341.589752,751.673950 346.466736,741.414307 
	C347.683838,738.854004 347.922485,736.342285 347.863708,733.681458 
	C347.822327,731.808838 347.007080,730.227295 344.958771,730.333862 
	C340.386047,730.571655 337.169098,727.627869 333.603119,725.656189 
	C330.542389,723.963806 328.354675,720.556030 324.116425,721.385376 
	C323.669891,721.472717 322.739197,720.798218 322.561554,720.291870 
	C319.780975,712.365906 310.007629,709.101746 309.062988,699.894714 
	C308.852509,697.843079 306.971100,696.527344 305.041565,695.746948 
	C298.072021,692.928345 296.704010,686.674561 296.120178,680.349854 
	C295.830017,677.206116 295.108765,675.016968 292.391815,673.356018 
	C281.780396,666.868896 284.294220,650.683716 290.808685,644.519348 
	C294.202301,641.308105 303.392548,641.532532 306.679657,644.890381 
	C307.638489,645.869873 308.608276,646.723938 309.997223,646.958862 
	C314.479279,647.716980 317.493469,650.845337 321.057404,653.294373 
	C329.726501,659.251465 337.849091,666.304138 348.362000,669.129395 
	C348.843872,669.258850 349.489410,669.299377 349.757324,669.627441 
	C354.250336,675.129395 361.676941,675.203186 367.090027,679.062866 
	C372.211304,682.714600 378.236267,683.386719 384.306580,682.687073 
	C388.021790,682.258850 390.755951,679.851562 392.098328,676.368652 
	C395.877594,666.562744 402.107544,658.031738 406.165314,648.305847 
	C410.295135,638.407288 417.944550,630.595642 425.559753,623.162170 
	C429.601654,619.216736 432.135895,614.885132 434.542847,609.796448 
	C440.602905,596.984497 445.320984,583.143311 457.151825,573.847595 
	C459.114014,572.305908 460.831818,569.906921 458.393982,567.410095 
	C450.883331,559.717712 444.460114,550.907227 434.930725,545.275818 
	C432.004730,543.546692 430.255554,543.342834 427.624512,545.803162 
	C424.743073,548.497742 421.109894,550.387329 417.809204,552.634949 
	C415.563202,554.164490 413.865936,553.299988 413.015411,551.121155 
	C410.726868,545.258606 404.614594,542.116028 402.564697,536.069824 
	C401.972198,534.322205 400.044464,533.489563 398.492493,532.505127 
	C393.818695,529.540283 393.732758,528.265625 397.912201,524.380859 
	C401.400665,521.138367 401.400696,521.138367 402.524841,517.222412 
	C398.492432,516.178955 397.587250,512.551331 396.510651,509.188385 
	C393.477997,508.709534 391.782410,510.614227 390.587585,512.453674 
	C383.143250,523.914185 371.385834,530.744629 361.588074,539.653992 
	C352.247528,548.147583 341.352356,554.694702 331.472076,562.584595 
	C323.057098,569.304443 313.117432,574.604248 304.237579,580.761353 
	C294.267883,587.674255 283.166382,590.808105 272.830048,596.075134 
	C260.192688,602.514771 247.778351,606.202515 233.441406,605.482178 
	C222.195160,604.917175 210.834824,606.654297 199.757339,603.284119 
	C197.857346,602.705994 195.835648,602.385620 194.069595,601.533020 
	C183.853271,596.600952 172.731430,594.141479 162.274689,589.831055 
	C159.232742,588.577209 155.369186,589.103699 151.889404,589.172974 
	C146.124130,589.287720 140.720551,588.375000 135.537155,585.617920 
	C131.596603,583.521912 127.314857,582.070007 123.195023,580.307861 
	C109.445648,574.426880 100.570877,563.217896 92.262932,551.544006 
	C88.609749,546.410706 82.959450,542.987244 80.494308,536.861450 
	C77.448135,529.291870 72.527779,522.777039 69.785500,514.783875 
	C67.138885,507.069672 67.999321,498.653381 63.759430,491.410370 
	C62.080322,488.541962 63.909328,485.322113 65.679665,482.542114 
	C74.502045,468.688232 84.680420,455.746185 91.235947,440.397308 
	C96.247299,428.663910 103.500877,417.950256 109.017921,406.378723 
	C121.213196,380.800323 138.846695,359.020203 157.264343,337.794830 
	C162.277054,332.017944 166.619125,325.668060 172.154922,320.328888 
	C172.727310,319.776855 173.193893,318.975830 173.402817,318.206940 
	C176.872665,305.437531 186.347763,297.936188 197.023499,291.684021 
	C202.716354,288.350067 207.094757,284.126526 211.321121,278.953491 
	C217.707458,271.136658 224.113678,263.267517 230.838257,255.699234 
	C235.152435,250.843796 239.389450,245.917953 243.586227,240.960327 
	C256.217682,226.038940 271.929382,214.910263 288.302124,204.600830 
	C289.245422,204.006882 290.488129,203.570312 291.584137,203.585632 
	C304.282043,203.763092 316.968353,204.126144 328.354309,210.891663 
	C333.128693,213.728592 338.516937,215.040802 343.578766,217.161530 
	C347.270233,218.708130 350.919403,220.302811 354.131989,222.759262 
	C356.302216,224.418655 359.137848,226.127655 361.469116,225.386368 
	C369.048279,222.976425 374.143433,228.719971 380.455048,230.288071 
	C390.784576,232.854385 399.403534,238.862473 408.590912,243.737167 
	C410.454102,244.725754 412.280792,245.183807 414.302612,244.221924 
	C418.676422,242.141098 422.660065,243.256866 425.661682,246.598312 
	C432.340271,254.032990 441.200256,258.513092 448.994537,264.422272 
	C457.480621,270.856018 462.198944,279.696045 465.163574,289.505737 
	C467.819855,298.295166 469.308136,307.194336 473.123352,315.922211 
	C476.753082,324.225647 480.564301,333.453705 478.273346,344.398224 
	C476.384827,353.420135 475.317932,361.815979 468.958710,368.929474 
	C466.788116,371.357544 466.040894,374.855804 466.235596,378.345673 
	C466.395935,381.219147 465.780518,384.104065 464.592773,386.615479 
	C458.869202,398.717896 457.229431,412.136993 451.997192,424.445648 
	C448.594116,432.451294 444.230164,439.906952 440.385437,447.632324 
	C437.224548,453.983734 435.407227,460.974701 431.026611,466.798370 
	C428.466431,470.201935 430.540741,473.568359 433.108307,476.177429 
	C439.620544,482.794830 445.914062,489.748688 455.301086,492.506317 
	C456.548523,492.872803 458.039917,493.392395 458.782196,494.339569 
	C464.767883,501.978027 472.274597,507.926025 479.636719,514.119324 
	C482.707825,516.702942 485.417145,519.283447 489.288147,520.806580 
	C493.486664,522.458679 495.905334,520.760498 497.342255,517.455200 
	C498.668152,514.405212 500.434021,512.009583 503.126770,510.179962 
	C503.669586,509.811127 504.372040,509.351501 504.534668,508.797058 
	C507.871338,497.418335 517.474243,490.410828 524.117004,481.412292 
	C531.214355,471.798004 538.259094,462.167847 544.927246,452.253967 
	C545.574036,451.292328 546.648376,450.417358 546.835449,449.378174 
	C548.904480,437.884766 558.597778,431.559082 564.862671,422.970245 
	C570.903442,414.688690 577.660522,406.931335 585.729553,400.315674 
	C590.565369,396.350861 590.028198,393.644958 585.140503,389.859924 
	C580.895447,386.572601 577.036743,382.960999 573.737427,378.717987 
	C572.837097,377.560120 571.694336,376.253265 570.390320,375.801697 
	C561.897827,372.860901 557.099426,365.526978 551.003540,359.762482 
	C547.730042,356.666931 544.756042,353.346069 540.159485,352.038574 
	C537.633972,351.320190 536.584290,349.195892 536.842407,346.539703 
	C537.035522,344.551666 536.781433,342.366791 537.535156,340.618103 
	C539.176819,336.809265 537.554016,334.869598 534.546814,332.839722 
	C529.230042,329.250946 526.982300,320.241608 529.888062,315.228638 
	C530.547363,314.091187 531.634155,313.203552 532.308838,312.072510 
	C533.954651,309.313629 539.745972,310.784332 539.188538,307.525635 
	C538.261230,302.104889 538.167480,296.179840 534.644104,291.398895 
	C532.107544,287.956909 531.145691,283.393127 527.182495,280.955261 
	C526.788452,280.712830 526.288025,280.147644 526.322449,279.777435 
	C527.002808,272.461609 520.947937,266.969879 520.962158,259.836853 
	C520.966187,257.813354 520.764343,255.607376 518.673035,254.629715 
	C514.662842,252.755005 514.400085,249.413132 514.964233,245.789673 
	C516.316895,237.100784 517.000549,228.222641 522.180664,220.597122 
	C523.875732,218.101822 525.212891,215.245209 524.933533,212.179108 
	C524.527893,207.727264 525.965393,204.012024 528.465881,200.516602 
	C535.083679,191.265579 540.000916,180.871048 547.650757,172.299927 
	C551.471985,168.018524 555.807861,164.426559 560.769531,161.660324 
	C579.498962,151.218277 597.309082,138.959061 616.946594,130.387497 
	C628.272888,125.443718 637.958191,117.828903 649.463867,113.292236 
	C657.229675,110.230209 665.303650,109.725471 673.173645,107.804688 
	C674.262024,107.539047 675.656860,107.480263 676.623657,107.934608 
	C683.099243,110.977585 690.434021,110.191345 696.983032,112.495888 
	C705.055847,115.336662 713.649536,115.174980 721.786621,117.636482 
	C728.599304,119.697311 735.604980,121.147003 742.491821,123.006401 
	C750.750854,125.236252 759.457825,126.644028 768.130493,126.386246 
	C782.166016,125.969063 793.193298,132.698502 802.784607,141.534454 
	C810.478943,148.622818 819.648621,150.126633 828.917908,150.633026 
	C839.839844,151.229706 850.487122,152.560593 860.701233,156.291260 
	C865.639648,158.095001 870.311096,160.744431 872.659485,166.145386 
	C873.488281,168.051575 875.175720,169.633530 876.641174,171.204941 
	C881.765564,176.699753 882.092163,179.206879 878.585205,184.584854 
	C882.256104,194.819366 891.954346,199.327698 898.305786,206.912735 
	C900.139832,209.102966 902.627808,210.032654 905.477722,208.547501 
	C908.868958,206.780212 909.178711,204.546341 906.110168,202.202942 
	C902.405090,199.373428 899.588257,195.514648 895.444519,193.201126 
	C894.130432,192.467453 892.630554,191.394043 893.424927,189.679871 
	C894.274963,187.845642 896.327515,187.881821 897.833374,188.520981 
	C902.099731,190.331818 906.647217,191.878311 910.335266,194.559021 
	C915.670959,198.437302 920.446960,202.993729 923.913879,208.931000 
	C929.167114,217.927460 933.326111,227.523376 939.620117,235.990616 
	C942.324951,239.629379 943.501465,244.286423 948.805298,245.193634 
	C949.075439,245.239838 949.405273,245.591278 949.507019,245.872955 
	C952.931824,255.350174 963.252258,258.490295 968.366638,266.410828 
	C969.704041,268.482117 971.495422,269.152557 973.954895,268.390015 
	C977.898071,267.167450 979.304688,269.541382 979.173706,272.848755 
	C978.552002,288.543671 979.740540,304.551880 971.978943,319.127197 
	C969.869446,323.088318 967.282593,326.807953 965.341858,330.843781 
	C959.303284,343.401428 956.414673,356.838409 954.514709,370.561493 
	C953.085815,380.881958 947.918030,389.495880 940.030640,395.912537 
	C930.126099,403.970154 920.090820,412.011963 908.115784,417.079163 
	C899.696899,420.641571 891.837585,425.295166 883.896667,429.814453 
	C876.340698,434.114624 870.954529,439.228790 873.128967,448.808350 
	C874.825378,456.282166 870.430786,462.726654 869.645447,469.786713 
	C869.445618,471.582397 867.914551,472.963501 866.605469,474.276001 
	C857.644470,483.259796 846.911926,486.910767 834.326172,485.087219 
	C827.903503,484.156586 821.471558,482.582489 815.043518,482.581207 
	C807.524292,482.579681 801.139832,479.845337 794.693787,476.770599 
	C783.479492,471.421478 771.361938,469.107574 759.462646,465.979095 
	C752.766663,464.218628 746.175598,461.777863 739.859070,458.929901 
	C732.681885,455.693909 724.971741,455.749786 717.518616,454.328003 
	C712.553162,453.380768 707.695374,451.290833 702.380432,452.309662 
	C700.808044,452.611023 699.966919,450.894623 699.207764,449.531128 
	C696.413818,444.512878 693.031250,440.497620 686.331482,441.988953 
	C684.517334,442.392761 682.654236,441.756836 681.010742,440.925232 
	C674.615967,437.689423 667.313354,438.578094 660.655090,436.338989 
	C657.166504,435.165833 655.322205,438.451050 653.811157,441.022247 
	C645.642944,454.920898 637.777405,468.961670 630.333862,483.291931 
	C624.902954,493.747559 619.953735,504.296448 615.154480,515.022095 
	C612.302673,521.395325 606.587952,526.446289 604.648621,533.450256 
	C603.551270,537.413330 601.495483,540.643188 599.230042,543.987488 
	C595.809387,549.037048 590.742432,549.711487 585.606323,549.734436 
	C582.110901,549.750122 580.490540,547.009705 580.745667,543.461792 
	C581.247986,536.474670 582.042664,529.714417 587.929138,524.643188 
	C592.296997,520.880188 595.206482,516.070984 596.171509,510.175507 
	C596.454468,508.447144 597.246277,506.446686 598.479370,505.289948 
	C604.247253,499.879028 607.683350,492.691284 612.901489,486.890717 
	C613.684326,486.020477 615.008362,485.105164 614.370544,483.978210 
	C612.027832,479.839203 614.714355,478.419464 617.742371,476.904053 
	C620.077637,475.735382 621.157654,473.735016 622.036682,471.157959 
	C623.805237,465.972900 626.972961,461.220825 626.407959,455.215515 
	C623.572144,455.821228 623.798340,458.645386 622.323853,460.076416 
	C618.663208,463.629150 615.378540,467.352539 610.749939,470.084320 
	C605.446289,473.214447 602.012695,478.952393 598.365051,483.963287 
	C593.820679,490.206055 590.007812,496.977203 583.975830,502.020966 
	C577.884583,507.114136 573.167786,513.271057 569.435974,520.272461 
	C564.511230,529.512085 558.004456,537.437561 549.216675,543.300171 
	C546.469910,545.132568 545.958130,547.777893 546.162903,550.718262 
	C546.371460,553.713074 548.742676,553.661743 550.912598,554.007874 
	C554.508667,554.581482 555.070312,557.069214 554.063110,559.977417 
	C552.913940,563.295532 554.334167,564.355957 557.215149,565.879944 
	C566.022217,570.538818 574.858826,574.642761 582.397461,582.073547 
	C591.429443,590.976257 601.574829,599.328125 613.047974,605.344666 
	C619.975647,608.977600 624.569763,614.887024 629.008118,620.732666 
	C632.213745,624.954773 630.346008,630.718872 628.713989,635.247620 
	C625.081726,645.327454 617.875000,652.636169 608.317627,657.535522 
	C605.344055,659.059875 602.739929,658.776550 600.144531,656.332886 
	C595.490173,651.950623 589.524658,649.531433 584.098572,646.314148 
	C575.855286,641.426575 567.572815,636.831482 559.813354,630.934570 
	C552.963928,625.729187 544.715942,621.491394 536.285645,618.399658 
	C530.644897,616.331055 526.110596,613.036072 522.934509,607.718689 
	C520.127869,603.019836 515.210815,601.022095 510.174164,599.566467 
	C508.209961,598.998840 505.961334,599.069763 504.393341,600.372131 
	C498.377289,605.369080 491.983643,610.350342 490.684662,618.673950 
	C489.983734,623.165222 488.329193,627.175842 485.768311,630.522522 
	C480.968719,636.794617 477.981720,644.542175 470.995697,649.107666 
	C469.954712,649.787903 468.741882,651.056885 468.626495,652.160034 
	C467.997681,658.172180 463.375214,661.316528 460.026886,665.559448 
	C454.170319,672.980835 449.123352,681.058533 443.984009,689.020447 
	C441.719604,692.528564 444.763733,697.538208 450.530457,700.110229 
	C452.463409,700.972351 455.186676,700.989380 454.691589,704.018982 
	C454.192993,707.070129 451.387787,706.789978 449.143127,707.145325 
	C447.175781,707.456604 445.211548,707.812317 443.232422,708.019043 
	C439.302155,708.429565 435.069580,708.351929 439.134033,714.249817 
	C440.519073,716.259705 438.502380,718.040283 437.013275,719.317200 
	C434.309174,721.636230 434.868683,723.814270 436.186829,726.779968 
	C441.091522,737.814880 449.770386,744.696106 460.044312,750.304382 
	C471.421051,756.514771 482.642517,762.991150 494.206909,768.877075 
	C502.413818,773.054260 501.109985,783.229187 495.186798,789.225586 
	C488.009003,796.492065 478.914917,801.160583 470.550323,806.842712 
	C464.142456,811.195679 459.163849,817.631226 452.819244,822.104614 
	C446.317261,826.689026 442.996216,832.323181 440.859131,839.934265 
	C438.273102,849.144287 434.140564,858.012207 429.863434,866.624023 
	C426.825897,872.740051 420.800598,876.690857 416.227753,881.717224 
	C407.119110,891.729004 396.748260,900.395752 385.447937,907.774536 
	C379.738220,911.502808 375.157501,917.182007 367.637604,918.117004 
	C356.722351,919.474182 352.130219,914.605896 354.888428,903.934875 
	C356.013794,899.581055 358.270477,895.658386 359.956604,891.549927 
	C365.236328,878.685120 373.700592,868.002808 381.155182,856.516785 
	C388.946899,844.511353 396.956879,833.256226 407.802368,823.858582 
	C415.191864,817.455383 419.807587,808.739197 423.940399,799.993713 
	C427.092133,793.324219 421.465332,784.066345 413.609802,781.911499 
	C410.523773,781.065002 406.732208,781.173767 405.634033,776.614624 
M612.681213,313.654266 
	C612.153442,315.055115 611.719788,316.500458 611.081726,317.849121 
	C608.208313,323.923187 608.832886,326.085876 614.809204,329.484650 
	C617.422241,330.970764 620.092468,332.360931 622.158447,334.583374 
	C626.024292,338.742065 630.271179,342.324158 635.076599,345.460846 
	C642.003296,349.982330 649.190552,354.263275 654.811951,360.573029 
	C656.223816,362.157806 657.998169,363.718597 660.199463,364.053101 
	C670.190369,365.571381 678.266235,372.390717 688.195862,374.042450 
	C693.009705,374.843231 695.211914,379.654144 698.952759,381.506653 
	C703.930725,383.971771 704.964539,387.033722 704.123718,391.782806 
	C703.872986,393.199554 703.500000,394.566437 705.152466,395.759918 
	C714.101196,402.223206 730.115540,402.425903 739.061279,395.377869 
	C742.962036,392.304626 747.149292,390.322083 751.600647,388.449982 
	C760.865662,384.553345 770.133179,380.528717 779.888367,378.202576 
	C786.916016,376.526825 794.046204,375.258057 801.040588,373.338409 
	C803.858704,372.565002 806.921326,372.659912 809.466187,375.034821 
	C807.821411,379.042175 804.432983,380.068268 801.013672,380.649719 
	C797.466675,381.252899 794.422119,382.915131 791.269104,384.396149 
	C787.837646,386.008057 787.566711,389.103821 788.459229,392.067474 
	C789.313660,394.904968 792.067322,394.867188 794.335632,394.034943 
	C801.020447,391.582245 808.002808,390.160553 813.002930,383.907684 
	C819.112366,376.267548 828.852112,373.299316 837.026245,368.501221 
	C842.912415,365.046143 849.198059,369.472565 854.232117,373.486755 
	C858.550232,376.930023 857.182373,381.081085 855.067932,385.202026 
	C854.215271,386.863739 853.615051,388.818909 855.561218,390.147858 
	C857.524475,391.488525 859.464600,390.768829 860.961792,389.200775 
	C863.601013,386.436584 865.924072,383.349396 868.706055,380.746460 
	C878.274719,371.793488 885.214355,361.005005 892.041687,349.917206 
	C895.633850,344.083649 897.486938,337.598724 901.068420,331.908386 
	C903.759216,327.633087 906.284058,323.465637 905.028687,317.974731 
	C904.494690,315.639069 906.178589,313.554199 907.415100,311.563416 
	C908.200134,310.299316 909.631165,308.942474 909.543091,307.715576 
	C909.163391,302.429382 911.854248,299.426758 916.109619,297.023560 
	C918.256714,295.810974 919.208313,293.708923 916.700073,291.806793 
	C910.914246,287.419159 907.185059,281.220612 902.927002,275.614227 
	C898.533264,269.829224 893.531799,265.403168 886.844177,262.797699 
	C885.424683,262.244629 883.857361,261.811035 883.602966,260.057251 
	C882.583069,253.027374 877.508850,250.081573 871.768250,247.143585 
	C855.664429,238.901810 839.890503,229.958664 822.257996,225.230408 
	C815.396912,223.390579 809.472839,220.234802 803.813965,215.824631 
	C798.434143,211.631927 793.543335,205.689453 785.040405,207.364883 
	C781.974243,207.969055 780.023743,205.264893 781.807251,202.042603 
	C783.363281,199.231171 782.355164,197.300262 780.602417,195.325562 
	C778.388916,192.831757 775.996460,190.642181 772.999573,188.971573 
	C769.615906,187.085342 766.703369,184.678528 767.767578,179.840179 
	C768.978516,174.334579 766.393494,171.980255 760.728516,172.561157 
	C755.581238,173.088943 750.268433,171.254517 747.249084,167.925247 
	C742.563477,162.758621 737.395081,161.090378 730.965820,161.062302 
	C727.067749,161.045273 723.482300,159.562515 720.014465,157.883072 
	C718.062317,156.937653 717.021240,154.784286 714.832764,154.073425 
	C705.249817,150.960739 695.505920,149.329056 685.382751,150.208298 
	C681.817871,150.517929 680.422546,151.809219 681.926636,155.315964 
	C683.080566,158.006409 684.227539,160.699844 685.326599,163.272552 
	C683.656616,165.402954 681.505798,164.933975 679.586304,165.097992 
	C677.421814,165.282944 675.205811,165.256744 673.312134,166.473892 
	C667.932556,169.931564 661.631409,171.173645 655.902832,173.829529 
	C636.046021,183.035645 615.463257,190.940170 602.237488,210.102875 
	C593.791748,222.339767 586.347473,234.664627 588.106079,250.436920 
	C588.430969,253.350632 587.619690,256.381409 587.433838,259.364471 
	C587.259705,262.159241 586.581238,265.163513 588.962036,267.392578 
	C591.524963,269.792114 592.607117,272.894745 593.647461,276.066803 
	C595.159912,280.678497 597.210510,284.745056 600.931335,288.275665 
	C604.250244,291.424957 606.737000,295.419525 610.775635,297.974365 
	C612.724243,299.207062 612.952148,301.701233 613.049927,303.843842 
	C613.186035,306.825378 612.961121,309.823395 612.681213,313.654266 
M295.954590,279.488159 
	C289.997559,285.027008 283.406189,289.925598 278.639862,296.666290 
	C277.669220,298.039001 276.626556,299.512543 274.925140,299.860535 
	C267.657745,301.347046 261.706970,304.564941 257.599731,311.101807 
	C256.049561,313.569000 253.382614,315.324402 251.065903,311.192688 
	C249.117981,307.718689 246.246063,309.786041 244.004410,310.598450 
	C241.539719,311.491730 238.550812,313.377075 239.635651,316.343536 
	C241.217239,320.668396 238.668381,322.506531 236.141602,324.646210 
	C232.457886,327.765564 228.651245,330.741211 225.002869,333.900360 
	C222.448120,336.112488 220.382248,338.742401 219.811478,342.216217 
	C218.135178,352.418488 207.854935,353.301788 201.839340,358.799896 
	C201.583847,359.033478 200.882523,358.773560 200.388519,358.752808 
	C195.912766,358.564789 193.558411,361.472046 194.788284,365.857422 
	C195.189529,367.288116 196.179428,368.623230 195.257401,370.121643 
	C192.906754,373.941772 190.733795,377.878754 187.329453,380.954742 
	C183.127304,384.751587 180.737793,389.977631 175.479813,393.264130 
	C171.684662,395.636353 169.390350,400.957153 166.213776,404.817230 
	C164.665939,406.698090 162.602890,409.348694 162.905746,411.323853 
	C163.663193,416.263702 160.727112,419.510376 159.033188,423.381592 
	C158.172104,425.349487 157.671036,427.471588 156.898087,429.482025 
	C154.317963,436.192810 151.291489,442.348785 144.913742,446.704193 
	C136.123184,452.707275 128.095978,459.418457 127.796234,471.749573 
	C127.689140,476.155334 128.726120,478.051697 132.762711,478.471069 
	C134.906998,478.693817 137.086655,478.650208 139.248596,478.616089 
	C148.858765,478.464325 157.073685,481.198395 162.703537,489.594604 
	C164.475235,492.236816 166.711548,494.465729 169.432175,496.206665 
	C173.495041,498.806549 175.738602,502.601074 176.024429,507.391846 
	C176.203278,510.389618 177.401413,512.835815 179.232452,515.074402 
	C180.394714,516.495361 181.480499,517.925842 182.096542,519.715332 
	C185.887329,530.727051 190.265121,541.497803 195.524445,551.898438 
	C196.428726,553.686707 197.315704,555.523804 199.049942,556.664062 
	C207.086563,561.948120 216.683990,561.405457 225.531494,563.667358 
	C226.126221,563.819336 226.851913,563.563843 227.494675,563.407471 
	C242.151443,559.840820 257.146362,557.752686 271.548920,553.023926 
	C275.783325,551.633606 280.328125,551.298889 284.251282,548.812317 
	C295.334991,541.787231 306.499725,534.889954 317.591797,527.877808 
	C318.836243,527.091125 320.005707,526.032593 320.895905,524.861389 
	C335.809021,505.240692 354.301392,488.695801 368.983856,468.879669 
	C369.376678,468.349487 369.989471,467.979187 370.366791,467.441132 
	C374.334259,461.783997 381.287872,459.036011 384.780090,453.019165 
	C394.210144,436.771667 403.996765,420.754578 408.207214,401.985199 
	C410.190796,393.142731 413.250153,384.451691 417.656647,376.311401 
	C422.223602,367.874664 419.017853,358.663391 419.368896,349.804779 
	C419.400696,349.002563 418.457184,348.054321 417.783356,347.348907 
	C413.130493,342.477997 412.822632,335.053375 407.784393,330.377991 
	C407.220459,329.854645 407.116150,328.425568 407.334167,327.549896 
	C407.901245,325.272217 407.167969,323.281006 406.464630,321.228210 
	C403.339355,312.107147 396.754669,305.460419 390.324829,298.720276 
	C386.867767,295.096436 383.408356,291.454681 377.510193,293.861542 
	C376.145874,294.418274 374.561646,293.308807 373.402069,292.378693 
	C363.452393,284.398010 352.165314,279.211060 340.009338,275.498566 
	C331.766083,272.981018 324.397949,266.899811 314.916687,269.981628 
	C314.186493,270.218964 313.242706,269.995209 312.445251,269.796722 
	C308.440765,268.800049 305.282043,270.252319 302.526581,273.047363 
	C300.539429,275.063049 298.507965,277.035004 295.954590,279.488159 
M145.206833,538.562012 
	C149.840134,539.004639 154.477203,539.365967 158.790894,541.415588 
	C159.995087,541.987732 161.499207,542.205566 162.398941,540.835266 
	C163.278854,539.495239 162.673035,538.208496 161.552582,537.307556 
	C157.120316,533.743591 156.735229,528.842041 156.925171,523.723755 
	C156.999756,521.713562 157.022064,519.757629 155.507614,518.092590 
	C151.924271,514.153015 148.950684,509.414093 144.748337,506.341949 
	C139.006943,502.144745 135.709869,497.400330 136.302917,490.218231 
	C136.317749,490.038422 135.827820,489.816925 135.413864,489.488312 
	C132.261292,490.052155 131.996414,492.469971 131.998520,495.065186 
	C132.003922,501.723907 132.047241,508.372894 131.542603,515.032349 
	C131.114746,520.678955 133.372498,522.186646 139.206268,523.526489 
	C143.735840,524.566711 147.531052,527.626404 150.418732,531.244751 
	C149.138977,533.466858 147.540680,533.096802 146.078796,533.140076 
	C144.607513,533.183655 142.880798,532.856262 142.397415,534.830872 
	C141.979782,536.536865 142.842896,537.706421 145.206833,538.562012 
M608.517822,359.518707 
	C606.873474,360.069061 604.774902,360.033508 604.436646,362.367432 
	C604.285828,363.408569 604.869812,364.303772 605.701355,364.879028 
	C607.643555,366.222656 609.542847,365.890961 610.885620,364.081818 
	C612.477844,361.936493 611.441895,360.449860 608.517822,359.518707 
M323.244995,247.319794 
	C325.234344,248.733566 327.200287,249.576996 328.407227,246.507736 
	C329.078522,244.800735 328.504425,243.457397 326.511719,243.322128 
	C324.160522,243.162506 321.910980,243.343506 323.244995,247.319794 
M335.319580,245.659286 
	C333.121277,247.220871 333.323730,248.958176 335.263245,250.421082 
	C336.276428,251.185333 337.641174,250.738388 338.175568,249.539474 
	C339.149323,247.354782 338.821838,245.654434 335.319580,245.659286 
M366.684418,265.047302 
	C368.048920,266.022858 368.978943,267.913391 371.473114,267.151245 
	C371.663666,264.162323 369.971619,262.697632 367.346893,262.326569 
	C365.559753,262.073883 365.620911,263.311951 366.684418,265.047302 
z"/>
<path fill="#000000" opacity="1.000000" stroke="none" 
	d="
M728.733154,708.297180 
	C718.541321,702.588135 707.708618,699.239746 697.501770,694.461121 
	C693.601135,692.635010 690.857849,688.997070 686.335815,688.137085 
	C684.105652,687.713013 684.565674,685.266968 684.697937,683.440125 
	C684.815247,681.819580 684.685120,680.323059 682.583252,680.213562 
	C680.839966,680.122681 679.531067,680.975159 679.463501,682.737305 
	C678.821533,699.473206 667.625427,711.298340 659.906128,724.719299 
	C658.877075,726.508423 658.515625,727.671753 659.408813,729.647705 
	C661.275452,733.777405 655.744507,742.951172 651.167847,743.588318 
	C648.301453,743.987305 647.609436,741.843872 646.897400,739.678223 
	C646.297852,737.854797 646.025330,735.413513 643.324219,735.594543 
	C640.950989,735.753723 639.683838,737.812622 639.633850,739.750122 
	C639.251465,754.570129 626.367249,756.845764 616.830261,761.668213 
	C610.172913,765.034546 602.242310,765.954224 594.709290,767.322388 
	C590.835083,768.026001 587.090210,767.929565 583.317139,767.113647 
	C573.154053,764.915894 569.107056,755.254456 574.542969,746.191345 
	C575.226868,745.051025 576.002197,743.957397 576.815857,742.904419 
	C579.421936,739.531738 579.763062,736.379578 576.360107,733.216248 
	C572.379883,729.516235 575.347717,725.050171 575.326782,720.931396 
	C575.321228,719.842041 575.983887,718.697144 576.512512,717.666382 
	C578.756592,713.290527 581.375549,709.199890 580.478027,703.745911 
	C579.493164,697.761414 584.172180,694.275574 587.364746,690.033813 
	C594.985413,679.908813 604.507935,671.513672 612.455933,661.704895 
	C614.332886,659.388428 616.350708,657.097351 618.660889,655.238342 
	C624.394409,650.624634 628.359436,644.730042 631.504272,638.240601 
	C634.763489,631.515198 637.887024,624.718445 640.860840,617.862183 
	C642.940918,613.066406 645.764160,608.935608 649.309753,605.051147 
	C658.096619,595.424377 665.009338,584.427612 671.850464,573.353943 
	C678.686096,562.289246 687.701721,552.813904 695.719543,542.610413 
	C700.542908,536.472290 705.695923,530.591858 710.741394,524.630005 
	C714.553589,520.125427 715.653381,520.015259 719.902405,524.230835 
	C723.628479,527.927612 728.363525,529.773621 733.176880,530.731628 
	C741.757141,532.439331 742.395996,540.397522 746.198059,545.870361 
	C746.408875,546.173767 746.338867,547.021790 746.079163,547.247192 
	C744.039734,549.017578 743.189148,551.054871 745.046692,553.315857 
	C747.202576,555.940125 749.790527,558.062744 753.479858,558.016785 
	C756.476074,557.979492 759.486084,557.637024 762.463501,557.832886 
	C766.807434,558.118591 767.546570,559.629028 765.162781,563.263672 
	C763.134216,566.356689 765.235474,568.052246 767.216919,569.448303 
	C771.981995,572.805664 776.970947,575.830444 782.505676,577.825562 
	C786.639587,579.315735 789.891663,581.766357 790.889343,586.300354 
	C791.344299,588.367920 792.716553,589.317322 794.408264,590.177124 
	C804.945007,595.532043 815.423279,601.003723 826.003113,606.271667 
	C833.372070,609.940796 839.787170,618.744873 838.999023,624.731995 
	C838.807678,626.185608 838.578491,627.921936 837.694336,628.949646 
	C832.283569,635.238281 828.112244,642.075073 819.920471,646.439758 
	C809.132629,652.187744 800.034424,649.272217 790.623962,645.547974 
	C777.901550,640.513184 767.001831,632.212097 756.049500,624.155029 
	C754.468262,622.991821 752.786438,621.585876 751.919128,619.897705 
	C748.268555,612.791809 741.346191,609.098877 735.558044,604.403809 
	C731.656860,601.239319 728.075500,597.888489 724.633423,594.302917 
	C721.159058,590.683655 719.382874,591.067871 717.695068,595.767700 
	C716.702332,598.531921 717.240662,601.052368 719.064148,603.256958 
	C720.441467,604.922241 722.095276,606.361389 723.445984,608.045593 
	C727.304504,612.856873 726.798462,614.685913 722.003723,618.549133 
	C715.525208,623.768982 711.524414,630.680969 710.054749,638.895142 
	C709.579102,641.553162 710.836060,643.299438 713.388855,644.867493 
	C726.842346,653.130859 740.669373,660.708679 754.461792,668.372742 
	C758.539734,670.638672 763.008545,674.181702 764.715454,678.228821 
	C766.810852,683.197266 768.141296,689.694946 765.555725,694.864441 
	C761.613708,702.745728 755.035156,708.630371 746.838684,712.184875 
	C740.219604,715.055420 734.580139,711.681946 728.733154,708.297180 
M797.922607,629.003113 
	C796.788757,626.451965 795.860046,623.782227 794.471130,621.378418 
	C792.571411,618.090576 789.049438,616.283997 785.717590,616.955627 
	C782.901550,617.523438 781.129028,620.640381 781.120667,624.027771 
	C782.756348,624.396790 783.700867,623.616272 784.726990,623.121582 
	C786.369141,622.330017 788.112854,621.182068 789.752441,622.794678 
	C791.226379,624.244324 790.191528,625.882568 789.486877,627.368469 
	C788.323059,629.822510 787.663330,632.603271 790.886536,633.499878 
	C793.942505,634.350098 797.253784,633.891296 797.922607,629.003113 
M711.898865,680.129150 
	C712.733398,680.569153 713.522095,681.412598 714.524719,680.447815 
	C713.321533,676.336914 704.596680,671.178955 698.365906,671.330994 
	C702.147705,675.634155 707.191162,677.057861 711.898865,680.129150 
M765.096924,609.095825 
	C768.395447,609.159607 771.161743,608.390808 772.247498,604.840759 
	C770.217163,602.528870 767.801086,603.381104 765.583008,603.435120 
	C764.082092,603.471558 762.405396,603.817139 761.879456,605.389282 
	C761.181274,607.476685 762.928345,608.207153 765.096924,609.095825 
M726.597839,685.775696 
	C725.376404,684.619202 724.602356,682.525269 722.245728,683.663513 
	C724.391418,688.644348 725.363281,689.332214 729.166870,688.582703 
	C729.142029,688.269043 729.239929,687.821899 729.070190,687.665833 
	C728.473145,687.116882 727.784058,686.668030 726.597839,685.775696 
z"/>
<path fill="#000000" opacity="1.000000" stroke="none" 
	d="
M988.218262,286.451752 
	C988.874084,290.679993 989.330566,294.607391 989.704224,298.542664 
	C989.842957,300.003418 989.281982,301.177795 987.714294,301.542572 
	C986.432129,301.840912 984.974121,301.305634 984.782776,300.244904 
	C984.031921,296.083557 982.588196,291.862091 984.092896,287.633667 
	C984.654175,286.056244 985.967468,284.739288 988.218262,286.451752 
z"/>
<path fill="#000000" opacity="1.000000" stroke="none" 
	d="
M342.819641,445.815247 
	C343.598267,449.906464 342.231323,454.214630 347.138611,456.492737 
	C349.063599,457.386383 348.768555,468.664215 347.257568,470.346161 
	C345.939880,471.813019 344.268677,471.782440 342.668762,471.086090 
	C339.143250,469.551666 335.439850,468.028748 334.484650,463.734955 
	C333.647156,459.970276 328.982086,460.113098 327.597900,456.515350 
	C329.985352,454.729156 331.547150,456.136261 332.847229,457.856049 
	C334.198273,459.643219 335.628265,460.089478 337.519562,458.798859 
	C339.035553,457.764404 340.902191,456.789520 340.356689,454.593872 
	C339.778259,452.265472 337.733063,452.850677 335.899780,452.603455 
	C332.330933,452.122162 329.387146,449.913147 327.293549,447.143280 
	C325.142029,444.296692 327.464386,442.517212 329.860626,441.407501 
	C332.164124,440.340729 340.946930,443.258759 342.819641,445.815247 
z"/>
<path fill="#000000" opacity="1.000000" stroke="none" 
	d="
M320.777100,294.640137 
	C323.180573,294.362244 325.134491,294.010162 327.103119,293.879791 
	C328.603027,293.780457 330.234375,293.934906 330.754547,295.710754 
	C331.310699,297.609619 330.163208,298.881836 328.665344,299.767426 
	C325.361359,301.720825 321.845337,303.116882 317.944794,303.204163 
	C315.329987,303.262726 312.555878,302.844299 312.389282,299.685059 
	C312.231873,296.700287 314.151031,294.826141 317.364716,294.731964 
	C318.354248,294.702972 319.344147,294.684570 320.777100,294.640137 
z"/>
<path fill="#000000" opacity="1.000000" stroke="none" 
	d="
M353.458984,296.588318 
	C350.012787,297.155548 346.884796,299.350159 343.056580,295.776947 
	C349.268097,294.473572 353.877655,289.352264 360.800751,292.399445 
	C359.142914,295.997070 356.440338,296.144958 353.458984,296.588318 
z"/>
</svg>